<svg version="1.1" viewBox="0.0 0.0 624.0524934383202 600.2493438320209" fill="none" stroke="none" stroke-linecap="square" stroke-miterlimit="10" xmlns:xlink="http://www.w3.org/1999/xlink" xmlns="http://www.w3.org/2000/svg"><clipPath id="p.0"><path d="m0 0l624.0525 0l0 600.2493l-624.0525 0l0 -600.2493z" clip-rule="nonzero"/></clipPath><g clip-path="url(#p.0)"><path fill="#000000" fill-opacity="0.0" d="m0 0l624.0525 0l0 600.2493l-624.0525 0z" fill-rule="evenodd"/><path fill="#999999" d="m71.82773 288.0l480.34457 0c12.684692 0 24.849854 5.038971 33.819275 14.008423c8.969421 8.969421 14.008423 21.134613 14.008423 33.819305l0 239.1329c0 0.0026245117 -0.0021362305 0.0048217773 -0.0048217773 0.0048217773l-575.9952 -0.0048217773l0 0c-0.0026512146 0 -0.0048007965 -0.0021362305 -0.0048007965 -0.0048217773l0.0048007965 -239.12808l0 0c0 -26.41452 21.413204 -47.82773 47.82773 -47.82773z" fill-rule="evenodd"/><path fill="#999999" d="m144.0 144.0l0 0c0 -66.27417 75.216156 -120.0 168.0 -120.0l0 0c92.783844 0 168.0 53.72583 168.0 120.0l0 0c0 66.27417 -75.216156 120.0 -168.0 120.0l0 0c-92.783844 0 -168.0 -53.72583 -168.0 -120.0z" fill-rule="evenodd"/></g></svg>