<svg version="1.1" viewBox="0.0 0.0 944.8818897637796 756.0" fill="none" stroke="none" stroke-linecap="square" stroke-miterlimit="10" xmlns:xlink="http://www.w3.org/1999/xlink" xmlns="http://www.w3.org/2000/svg"><clipPath id="p.0"><path d="m0 0l944.8819 0l0 756.0l-944.8819 0l0 -756.0z" clip-rule="nonzero"/></clipPath><g clip-path="url(#p.0)"><path fill="#000000" fill-opacity="0.0" d="m0 0l944.8819 0l0 756.0l-944.8819 0z" fill-rule="evenodd"/><defs><radialGradient id="p.1" gradientUnits="userSpaceOnUse" gradientTransform="matrix(18.176634186443017 0.0 0.0 18.176634186443017 0.0 0.0)" spreadMethod="pad" cx="28.610467120393928" cy="17.825038963488574" fx="28.610467120393928" fy="17.825038963488574" r="18.176633834838867"><stop offset="0.0" stop-color="#1077d2"/><stop offset="0.32" stop-color="#0d5493"/><stop offset="0.66" stop-color="#0b4373"/><stop offset="1.0" stop-color="#093153"/></radialGradient></defs><path fill="url(#p.1)" d="m304.8399 308.40237l-0.7979126 56.7937l360.80212 208.8063l68.79578 -44.799988l2.4020996 -304.00003l-261.6021 -151.2063l-48.0 28.800003l263.19794 149.6021l-2.3937378 276.80423z" fill-rule="evenodd"/><defs><radialGradient id="p.2" gradientUnits="userSpaceOnUse" gradientTransform="matrix(-18.176634186443017 0.0 0.0 -18.176634186443017 0.0 0.0)" spreadMethod="pad" cx="-23.372858289131923" cy="-23.766848576298287" fx="-23.372858289131923" fy="-23.766848576298287" r="18.176633834838867"><stop offset="0.0" stop-color="#1077d2"/><stop offset="0.32" stop-color="#0d5493"/><stop offset="0.66" stop-color="#0b4373"/><stop offset="1.0" stop-color="#093153"/></radialGradient></defs><path fill="url(#p.2)" d="m640.042 447.59818l0.7979126 -56.7937l-360.80212 -208.8063l-68.79579 44.799988l-2.4020996 304.0l261.6021 151.2063l48.00003 -28.799988l-263.19794 -149.60211l2.393692 -276.8042z" fill-rule="evenodd"/><defs><linearGradient id="p.3" gradientUnits="userSpaceOnUse" gradientTransform="matrix(14.394554769853507 0.0 0.0 14.394554769853507 0.0 0.0)" spreadMethod="pad" x1="23.12277051080641" y1="8.919688983816915" x2="23.122719228291032" y2="23.31424375357907"><stop offset="0.0" stop-color="#212446"/><stop offset="0.27" stop-color="#0b4373"/><stop offset="0.7" stop-color="#0d5493"/><stop offset="1.0" stop-color="#215294"/></linearGradient></defs><path fill="url(#p.3)" d="m332.84198 155.60027l44.80002 -27.204208l263.99582 150.4l-0.7979126 56.802124z" fill-rule="evenodd"/><defs><linearGradient id="p.4" gradientUnits="userSpaceOnUse" gradientTransform="matrix(-14.39455619436775 0.0 0.0 -14.39455619436775 0.0 0.0)" spreadMethod="pad" x1="-42.57427566384292" y1="-43.59962102391553" x2="-42.574326946353224" y2="-29.20506482963913"><stop offset="0.0" stop-color="#215294"/><stop offset="0.28" stop-color="#0b4373"/><stop offset="0.7" stop-color="#0d5493"/><stop offset="1.0" stop-color="#1a3c6b"/></linearGradient></defs><path fill="url(#p.4)" d="m612.83777 600.39185l-44.799988 27.204224l-263.9958 -150.4l0.7979126 -56.802124z" fill-rule="evenodd"/><path fill="#000000" fill-opacity="0.0" d="m381.7953 881.7979l181.29132 0l0 79.24408l-181.29132 0z" fill-rule="evenodd"/><path fill="#1a3c6b" d="m398.34216 929.25354l18.375 0q1.5625 0 2.453125 0.125q0.90625 0.109375 2.078125 0.734375q2.4375 1.25 2.4375 6.171875q0 5.4375 -3.265625 6.484375q-1.28125 0.46875 -3.765625 0.46875l-25.34375 0q-5.4375 0 -6.5 -3.328125q-0.453125 -1.21875 -0.453125 -3.703125l0 -35.578125q0 -3.828125 1.59375 -5.390625q1.609375 -1.5625 5.5625 -1.5625l25.203125 0q1.5625 0 2.453125 0.125q0.90625 0.109375 2.078125 0.734375q2.4375 1.25 2.4375 6.15625q0 5.453125 -3.265625 6.5q-1.28125 0.46875 -3.765625 0.46875l-18.3125 0l0 3.796875l11.34375 0q1.5625 0 2.453125 0.125q0.890625 0.125 2.0625 0.734375q2.4375 1.28125 2.4375 6.171875q0 5.453125 -3.328125 6.515625q-1.296875 0.4375 -3.75 0.4375l-11.21875 0l0 3.8125zm56.73816 -0.71875l1.171875 -0.859375q2.546875 -1.5 3.796875 -1.5q2.703125 0 5.421875 4.203125q1.609375 2.5625 1.609375 4.375q0 1.796875 -1.109375 2.953125q-1.109375 1.15625 -2.34375 1.90625q-1.21875 0.75 -2.359375 1.4375q-1.125 0.671875 -4.5625 1.75q-3.421875 1.078125 -6.65625 1.078125q-3.21875 0 -6.5 -0.84375q-3.265625 -0.84375 -6.734375 -2.8125q-3.453125 -1.984375 -6.234375 -4.859375q-2.78125 -2.890625 -4.578125 -7.390625q-1.78125 -4.5 -1.78125 -9.75q0 -5.25 1.765625 -9.546875q1.765625 -4.3125 4.515625 -7.125q2.75 -2.828125 6.25 -4.71875q6.578125 -3.609375 13.25 -3.609375q3.203125 0 6.484375 0.984375q3.28125 0.984375 5.0 2.015625l1.5625 0.90625q1.171875 0.734375 1.890625 1.21875q2.203125 1.765625 2.203125 4.0q0 2.21875 -1.59375 4.4375q-2.90625 4.0 -5.5625 4.0q-1.5625 0 -4.046875 -1.65625q-2.375 -1.921875 -6.390625 -1.921875q-3.734375 0 -7.40625 2.625q-1.65625 1.203125 -2.796875 3.484375q-1.140625 2.28125 -1.140625 5.203125q0 2.921875 1.140625 5.203125q1.140625 2.265625 2.859375 3.546875q3.546875 2.5625 7.34375 2.5625q1.796875 0 3.375 -0.453125q1.578125 -0.46875 2.15625 -0.84375zm42.784058 -32.5625q0.6875 -1.3125 2.265625 -1.796875q1.578125 -0.5 3.625 -0.5q2.046875 0 3.34375 0.390625q1.3125 0.375 2.125 1.015625q0.828125 0.625 1.3125 1.859375q0.375 1.328125 0.375 3.75l0 35.515625q0 1.5625 -0.125 2.46875q-0.109375 0.890625 -0.734375 2.0625q-1.25 2.4375 -6.15625 2.4375q-5.453125 0 -6.5 -3.265625q-0.46875 -1.28125 -0.46875 -3.765625l0 -11.65625l-14.296875 0l0 11.71875q0 1.5625 -0.125 2.46875q-0.109375 0.890625 -0.734375 2.0625q-1.28125 2.4375 -6.171875 2.4375q-5.4375 0 -6.515625 -3.28125q-0.4375 -1.28125 -0.4375 -3.75l0 -35.515625q0 -1.546875 0.109375 -2.4375q0.125 -0.90625 0.75 -2.09375q1.25 -2.421875 6.15625 -2.421875q5.421875 0 6.578125 3.28125q0.390625 1.3125 0.390625 3.734375l0 11.734375l14.296875 0l0 -11.796875q0 -1.5625 0.125 -2.453125q0.125 -0.890625 0.8125 -2.203125zm38.860962 -2.875q10.015625 0 17.375 7.234375q7.375 7.21875 7.375 17.90625q0 10.6875 -7.03125 18.234375q-7.03125 7.53125 -17.328125 7.53125q-10.296875 0 -17.5 -7.4375q-7.203125 -7.4375 -7.203125 -17.703125q0 -5.578125 2.015625 -10.453125q2.03125 -4.890625 5.421875 -8.203125q3.390625 -3.328125 7.78125 -5.21875q4.390625 -1.890625 9.09375 -1.890625zm-10.328125 25.453125q0 5.140625 3.28125 8.3125q3.28125 3.15625 7.296875 3.15625q4.015625 0 7.265625 -3.078125q3.25 -3.078125 3.25 -8.328125q0 -5.265625 -3.28125 -8.390625q-3.28125 -3.140625 -7.296875 -3.140625q-4.0 0 -7.265625 3.171875q-3.25 3.15625 -3.25 8.296875z" fill-rule="nonzero"/></g></svg>