<svg width="500" height="500" xmlns="http://www.w3.org/2000/svg">
 <!-- Created with Method Draw - http://github.com/duopixel/Method-Draw/ -->

 <g>
  <title>background</title>
  <rect fill="#2d86ff" id="canvas_background" height="502" width="502" y="-1" x="-1"/>
  <g display="none" overflow="visible" y="0" x="0" height="100%" width="100%" id="canvasGrid">
   <rect fill="url(#gridpattern)" stroke-width="0" y="2" x="2" height="400" width="500"/>
  </g>
 </g>
 <g>
  <title>Layer 1</title>
  <g id="svg_5">
   <path id="svg_4" d="m250,96.491c84.78047,0 153.509,68.72853 153.509,153.509c0,84.78047 -68.72853,153.509 -153.509,153.509c-84.78047,0 -153.509,-68.72853 -153.509,-153.509c0,-84.78047 68.72853,-153.509 153.509,-153.509zm0,21.93005c-6.65582,0 -13.19668,0.49446 -19.58726,1.44806c-1.36773,2.97853 -2.3428,6.24792 -2.3428,9.51662c0,10.96537 -10.96468,-10.96468 -21.92936,10.96537c-10.96537,21.92936 0,0 0,21.92936c0,10.96537 -15.86911,3.03116 -10.96537,5.48269c10.96537,5.48269 10.96537,5.48269 0,16.44737c0,0 -21.92936,-10.96468 -21.92936,0c0,10.96468 -10.96537,10.96468 -21.93005,10.96468c-10.96468,0 0,21.93005 -10.96468,21.93005c-8.43075,0 -3.89751,-12.96468 -11.31925,-18.95706c-2.82133,6.57341 -5.12258,13.42244 -6.8518,20.49584c7.38989,6.62119 8.62742,32.7777 18.17105,42.32133c10.96468,-10.96537 10.96468,0 21.92936,0c10.96537,0 10.96537,0 16.44737,10.96468c10.96537,0 16.44737,10.96468 27.41274,21.92936c10.96468,10.96537 32.89404,10.96537 32.89404,21.93005c0,10.96468 -10.96468,0 -10.96468,21.93005c0,10.96468 0,10.96468 -10.96468,10.96468c-6.90374,0 -13.80817,13.04086 -17.97507,22.70083c15.64958,6.56579 32.83587,10.19391 50.86981,10.19391c36.82756,0 70.12119,-15.1295 94.00415,-39.51246l-6.28532,-12.57064c0,0 13.70637,-21.93005 2.74169,-32.89474c-10.96537,-10.96468 -10.96537,-21.93005 -10.96537,-21.93005c0,0 -21.92936,21.93005 -32.89474,10.96468c-10.96468,-10.96468 -10.96468,0 -21.92936,-21.92936c-10.96537,-21.93005 10.96468,-32.89474 10.96468,-32.89474c0,0 0,-21.93005 10.96468,-21.93005c10.96537,0 21.93005,-21.92936 43.86011,0c0,0 12.67244,-8.44806 30.6018,-10.51316c-5.62396,-13.16897 -13.3331,-25.23407 -22.7133,-35.78047c-1.96953,1.4162 -4.54709,2.43421 -7.8885,2.43421c-10.96537,0 10.96468,21.93005 0,21.93005c-10.96537,0 -10.96537,-10.96537 -21.93005,-10.96537c-10.96468,0 -10.96468,10.96537 -21.93005,21.93005c-10.96468,10.96468 0,0 -10.96468,-10.96468c-10.96468,-10.96537 21.93005,0 10.96468,-10.96537c-10.96468,-10.96468 10.96537,-10.96468 10.96537,-21.92936c0,-8.60042 13.4903,-10.45499 19.30956,-10.85526c-6.32825,-4.56302 -13.07756,-8.57756 -19.30956,-11.07479c10.96468,10.96468 -10.96537,21.93005 -21.93005,21.93005c-10.29986,0 -1.25,-19.34972 -0.11357,-30.78532c-11.29986,-3.16066 -23.21399,-4.85111 -35.52216,-4.85111zm-131.57894,131.57894c0,38.70152 16.70845,73.5 43.3054,97.57618l-10.41066,-20.82202c-10.96468,0 -16.44737,-24.67036 -16.44737,-35.63573c0,-8.79917 -3.53116,-15.8331 0.74169,-23.9356c-15.47022,-15.5374 -6.22438,-7.11357 -6.22438,-17.18283c0,-5.21953 -4.96953,-10.43975 -10.17729,-14.47645c-0.52078,4.75416 -0.7874,9.58379 -0.7874,14.47645z" stroke-linejoin="round" stroke-width="0.2" fill="#ffffff"/>
  </g>
 </g>
</svg>